<svg xmlns="http://www.w3.org/2000/svg" width="27.826" height="27.826" viewBox="-877.698 2442.288 27.826 27.826"><path fill="#F5F5F5" d="M1072.574-4953.242h1319.479v147.015H1072.574zM-50.296-2251.633h1319.478v147.015H-50.296z"/><path fill="#2B9ED8" d="M-851.451 2462.43a6 6 0 0 1-6 6h-12.667c-3.312 0-6-2.687-6-6v-12.833c0-3.313 2.688-6 6-6h12.667a6 6 0 0 1 6 6v12.833z"/><g fill="#FFF"><path d="M-865.148 2451.692c-.559-.429-1.221-.679-2.94-.679h-2.979v10.003h1.814v-3.519h1.386c1.546 0 2.178-.277 2.803-.789.619-.502 1.034-1.504 1.034-2.495 0-1.009-.418-1.952-1.118-2.521zm-1.359 3.962c-.458.245-.966.278-1.401.278h-1.344v-3.354h1.261c.486 0 1 .034 1.458.278.489.236.772.742.772 1.385.001.633-.286 1.174-.746 1.413zM-858.865 2455.381l-.22-.091c-1.603-.666-2.143-.89-2.128-1.702 0-.732.596-1.287 1.386-1.287 1.068 0 1.294.813 1.379 1.261h1.801c-.139-2.021-1.749-2.743-3.11-2.743-1.585 0-3.27 1.021-3.27 2.909 0 1.852 1.737 2.471 2.479 2.736l.303.119c1.253.494 1.942.767 1.942 1.661 0 .817-.684 1.482-1.524 1.482-.147 0-1.418-.047-1.559-1.647h-1.807c.018.914.31 1.682.848 2.224.589.593 1.469.905 2.545.905 2.432 0 3.298-1.581 3.298-3.062 0-1.449-.904-2.133-2.363-2.765z"/></g></svg>